<svg width="72" height="72" viewBox="0 0 72 72" fill="none" xmlns="http://www.w3.org/2000/svg">
<g clip-path="url(#clip0_0_732)">
<path d="M35.8701 0H35.8657C16.0576 0 0 16.0576 0 35.8657C0 55.6738 16.0576 71.7314 35.8657 71.7314H35.8701C55.6782 71.7314 71.7358 55.6738 71.7358 35.8657C71.7358 16.0576 55.6782 0 35.8701 0Z" fill="#1A1A1A"/>
<path fill-rule="evenodd" clip-rule="evenodd" d="M34.793 0C34.6124 14.5394 33.6201 22.7114 28.1664 28.1646C22.7127 33.6179 14.5401 34.6103 0 34.7909V36.9405C14.5401 37.1211 22.7127 38.1137 28.1664 43.5668C33.6201 49.0201 34.6124 57.1916 34.793 71.7316H36.9425C37.1232 57.1916 38.1155 49.0201 43.5692 43.5668C49.0228 38.1137 57.1955 37.1211 71.7356 36.9405V34.7909C57.1955 34.6103 49.0228 33.6177 43.5692 28.1646C38.1155 22.7113 37.1232 14.5394 36.9425 0H34.793Z" fill="white"/>
</g>
<defs>
<clipPath id="clip0_0_732">
<rect width="72" height="72" fill="white"/>
</clipPath>
</defs>
</svg>
