<svg width="156" height="122" viewBox="0 0 156 122" fill="none" xmlns="http://www.w3.org/2000/svg">
<path d="M157.1 50.4095L115.061 46.3303L128.163 61.5448L81.569 104.571C77.0078 90.4228 81.9121 74.6361 87.0822 57.9931L87.7373 55.8817C89.9108 49.032 92.1741 41.8906 93.6554 34.6444L93.6196 34.6774C96.7208 19.8813 93.223 3.83736 82.8059 -8.25995C65.4712 -28.3905 35.4644 -30.0858 15.9193 -12.0371C-3.6258 6.01147 -5.423 37.0756 11.9117 57.2062C24.5871 71.9259 44.0311 76.7741 61.2124 71.2706C56.4972 91.6439 55.845 114.159 74.8947 136.281L76.5658 138.222L142.087 77.7174L157.207 95.2765L157.099 50.4108L157.1 50.4095ZM30.0351 4.35533C40.8048 -5.58978 57.3398 -4.65635 66.8927 6.43735C76.4456 17.531 75.4534 34.6472 64.6837 44.5923C53.914 54.5374 37.3802 53.6054 27.8273 42.5117C18.2743 31.418 19.2654 14.3004 30.0351 4.35533Z" fill="#F1F1F1"/>
</svg>
