<svg width="61" height="90" viewBox="0 0 61 90" fill="none" xmlns="http://www.w3.org/2000/svg">
<path d="M60.6487 72.9807L45.6851 56.7435V67.0813H13.1978C16.1583 60.132 23.343 55.8709 30.9174 51.3786L31.878 50.8084C35.0131 48.9755 38.2806 47.0636 41.2795 44.8387H41.2545C47.4077 40.3223 51.4151 33.0273 51.4151 24.8075C51.4151 11.1295 40.3275 0 26.6998 0C13.0721 0 1.98452 11.1295 1.98452 24.8075C1.98452 34.8091 7.91503 43.4401 16.4289 47.3622C7.78356 53.4254 0 61.7193 0 76.7506V78.0692H45.6842V90L60.6477 72.9807H60.6487ZM26.6998 11.1382C34.2089 11.1382 40.3189 17.2707 40.3189 24.8085C40.3189 32.3463 34.2089 38.4779 26.6998 38.4779C19.1907 38.4779 13.0807 32.3463 13.0807 24.8085C13.0807 17.2707 19.1907 11.1382 26.6998 11.1382Z" fill="#FF69DA"/>
</svg>
