<svg width="41" height="41" viewBox="0 0 41 41" fill="none" xmlns="http://www.w3.org/2000/svg">
<path d="M8.97285 37.8828C7.74468 34.5913 7.14064 31.8304 6.34649 27.9754C5.60715 24.3865 5.05636 22.3328 4.97144 18.8379C4.8677 14.5682 4.8782 10.5301 7.12684 7.17681C10.082 2.76986 14.1662 1.41771 20.1662 2.21744C23.5596 2.66974 27.3036 3.8136 32.7345 7.66981C38.1654 11.526 38.8271 17.6519 37.5422 21.3127C36.2572 24.9734 29.944 29.6637 25.3529 32.0096C20.7619 34.3555 9.55645 38.1846 9.55645 38.1846" stroke="#FF69DA" stroke-width="4" stroke-linecap="round"/>
<path d="M24.4442 16.9054C24.4442 19.0572 22.4556 20.8015 20.0026 20.8015C17.5496 20.8015 15.5611 19.8275 15.5611 16.9054C15.5611 14.7537 17.5496 13.0093 20.0026 13.0093C22.4556 13.0093 24.4442 14.2186 24.4442 16.9054Z" stroke="#FF69DA" stroke-width="4"/>
</svg>
