<svg width="779" height="206" viewBox="0 0 779 206" fill="none" xmlns="http://www.w3.org/2000/svg">
<path d="M777.614 49.3711L569.53 35.4135L634.379 87.4724L403.749 234.694C381.172 186.283 405.447 132.266 431.038 75.3196L434.281 68.0951C445.039 44.6576 456.242 20.2222 463.574 -4.5719L463.397 -4.45886C478.748 -55.0863 461.434 -109.983 409.872 -151.376C324.069 -220.256 175.541 -226.057 78.7972 -164.3C-17.9469 -102.544 -26.8427 3.74707 58.9603 72.627C121.701 122.993 217.945 139.582 302.988 120.751C279.649 190.462 276.421 267.501 370.713 343.195L378.985 349.835L703.3 142.81L778.143 202.891L777.607 49.3754L777.614 49.3711ZM148.667 -108.211C201.975 -142.24 283.82 -139.046 331.105 -101.087C378.39 -63.128 373.478 -4.56226 320.17 29.4666C266.863 63.4954 185.024 60.3064 137.739 22.3475C90.4541 -15.6114 95.3596 -74.1821 148.667 -108.211Z" fill="#F1F1F1"/>
</svg>
