<svg width="779" height="557" viewBox="0 0 779 557" fill="none" xmlns="http://www.w3.org/2000/svg">
<path d="M777.614 256.45L569.53 242.492L634.379 294.551L403.749 441.773C381.172 393.362 405.448 339.345 431.038 282.398L434.281 275.174C445.039 251.736 456.242 227.301 463.574 202.507L463.397 202.62C478.748 151.992 461.434 97.0952 409.872 55.7022C324.069 -13.1778 175.541 -18.9784 78.7973 42.778C-17.9469 104.534 -26.8426 210.825 58.9604 279.705C121.701 330.072 217.945 346.66 302.988 327.829C279.649 397.54 276.421 474.579 370.713 550.274L378.985 556.914L703.3 349.888L778.143 409.969L777.607 256.454L777.614 256.45ZM148.667 98.8675C201.975 64.8387 283.82 68.0325 331.105 105.991C378.39 143.95 373.478 202.516 320.171 236.545C266.863 270.574 185.024 267.385 137.739 229.426C90.4542 191.467 95.3597 132.896 148.667 98.8675Z" fill="#F1F1F1"/>
</svg>
