<svg width="46" height="41" viewBox="0 0 46 41" fill="none" xmlns="http://www.w3.org/2000/svg">
<path d="M16.2247 2.68434C21.0202 1.14526 29.1385 2.68434 29.1385 2.68434C29.1385 2.68434 33.479 3.69795 35.5954 4.76471C39.1832 6.57316 40.6508 7.89868 42.3751 11.5495C42.9689 12.8067 43.6772 17.6846 43.6665 19.5619C43.646 23.1597 42.2146 27.1557 40.1152 30.1772C33.9371 39.0688 26.6688 39.598 16.9899 37.8974C11.6744 36.9634 4.60971 32.5156 2.6656 25.352C1.2365 20.0861 2.17851 15.4102 4.82038 11.5495C7.8613 7.10566 10.848 4.40997 16.2247 2.68434Z" stroke="#FF69DA" stroke-width="4" stroke-linecap="round"/>
<path d="M21.9968 21.1672C21.9968 16.1562 21.9968 11.1798 21.9968 6.16718" stroke="#FF69DA" stroke-width="4" stroke-linecap="round"/>
<path d="M22.8336 21.1671C25.4163 21.0031 27.9847 20.6878 30.5608 20.5021C31.2759 20.4506 32.1332 20.3337 32.8336 20.3337" stroke="#FF69DA" stroke-width="4" stroke-linecap="round"/>
</svg>
