<svg width="48" height="43" viewBox="0 0 48 43" fill="none" xmlns="http://www.w3.org/2000/svg">
<path d="M2.25 21.057C6.7562 19.2158 11.4096 17.7443 15.8113 15.6575C19.395 13.9586 22.8987 12.1009 26.4783 10.3959C30.1699 8.63756 34.0838 7.3032 37.7522 5.54783C39.217 4.84685 40.6906 4.09919 42.257 3.64077C43.3576 3.31867 44.1373 2.65277 45.3147 2.65277" stroke="#FF69DA" stroke-width="4" stroke-linecap="round"/>
<path d="M45.1037 3.27307C44.686 7.62027 43.8321 12.258 43.5548 16.6249C43.4142 18.84 43.3841 20.7012 43.2598 22.9181C43.0813 26.0989 42.9544 28.7147 42.7929 32.4304C42.7255 33.9826 42.779 34.8588 42.6295 36.4054C42.5057 37.6863 42.6659 39.3749 42.6659 39.3749" stroke="#FF69DA" stroke-width="4" stroke-linecap="round"/>
<path d="M2.13617 22.1058C5.60173 23.3187 9.25016 24.0935 12.7827 25.1001C13.775 25.3829 14.6925 25.7168 15.6204 26.1537C15.8865 26.279 16.0608 26.5084 16.3316 26.5973" stroke="#FF69DA" stroke-width="4" stroke-linecap="round"/>
<path d="M21.6496 29.2172C25.7287 30.8859 29.5126 33.0592 33.4791 34.9286C35.1977 35.7386 37.0107 36.4203 38.6756 37.3338C39.9747 38.0465 40.8661 39.4239 42.1822 40.0717" stroke="#FF69DA" stroke-width="4" stroke-linecap="round"/>
<path d="M21.4018 28.8431C22.8934 27.2452 24.2028 25.6273 25.8379 24.1991C27.023 23.1639 28.2536 21.8868 29.26 20.671C30.1662 19.5762 31.1467 18.5019 32.161 17.5034C32.8322 16.8427 34.1127 15.2566 34.6657 14.8751" stroke="#FF69DA" stroke-width="4" stroke-linecap="round"/>
<path d="M16.0848 26.4727C20.6457 23.9422 22.9955 21.8114 27.557 19.2501C29.8957 17.9369 32.3352 16.1873 34.6681 14.8751" stroke="#FF69DA" stroke-width="4" stroke-linecap="round"/>
</svg>
