<svg width="170" height="90" viewBox="0 0 170 90" fill="none" xmlns="http://www.w3.org/2000/svg">
<g clip-path="url(#clip0_172_2)">
<path d="M60.6487 72.9807L45.6851 56.7435V67.0813H13.1978C16.1583 60.132 23.343 55.8709 30.9174 51.3786L31.878 50.8084C35.0131 48.9755 38.2806 47.0636 41.2795 44.8387H41.2545C47.4077 40.3223 51.4151 33.0273 51.4151 24.8075C51.4151 11.1295 40.3275 0 26.6998 0C13.0721 0 1.98452 11.1295 1.98452 24.8075C1.98452 34.8091 7.91503 43.4401 16.4289 47.3622C7.78356 53.4254 0 61.7193 0 76.7506V78.0692H45.6842V90L60.6477 72.9807H60.6487ZM26.6998 11.1382C34.2089 11.1382 40.3189 17.2707 40.3189 24.8085C40.3189 32.3463 34.2089 38.4779 26.6998 38.4779C19.1907 38.4779 13.0807 32.3463 13.0807 24.8085C13.0807 17.2707 19.1907 11.1382 26.6998 11.1382Z" fill="#FF69DA"/>
<path d="M81.9737 48.2676C85.1696 48.2676 85.7464 50.0479 85.7464 51.375C85.7464 52.7887 84.926 53.522 83.7378 53.9233V53.9406C84.6805 54.1331 86.3405 54.8308 86.3405 57.0653C86.3405 59.9976 83.8254 60.4864 81.6598 60.4864H75.8438V48.2676H81.9747H81.9737ZM78.7248 53.0851H81.3796C82.5495 53.0851 82.8114 52.2998 82.8114 51.8282C82.8114 51.3221 82.5322 50.6417 81.2573 50.6417H78.7248V53.0851ZM78.7248 58.1123H81.7118C82.2183 58.1123 83.3016 57.8506 83.3016 56.7333C83.3016 55.616 82.3935 55.3369 81.3459 55.3369H78.7258V58.1123H78.7248Z" fill="#FF69DA"/>
<path d="M87.8945 50.6407V48.2666H98.1641V50.6407H94.479V60.4855H91.597V50.6407H87.8945Z" fill="#FF69DA"/>
<path d="M99.0039 54.3763C99.0039 51.5306 100.366 47.918 105.187 47.918C109.396 47.918 111.37 50.676 111.37 54.3763C111.37 58.0765 109.396 60.8345 105.187 60.8345C100.366 60.8345 99.0039 57.2209 99.0039 54.3763ZM108.26 54.3763C108.26 53.259 108.121 50.2921 105.187 50.2921C103.597 50.2921 102.131 51.1476 102.131 54.3763C102.131 57.6049 103.598 58.4604 105.187 58.4604C108.121 58.4604 108.26 55.406 108.26 54.3763Z" fill="#FF69DA"/>
<path d="M119.593 48.2676C122.056 48.2676 124.204 49.1924 124.204 52.2122C124.204 56.0519 121.008 56.2791 119.523 56.2791H116.78V60.4855H113.898V48.2666H119.592L119.593 48.2676ZM116.781 53.9059H119.035C120.415 53.9059 121.095 53.4171 121.095 52.2305C121.095 50.5724 119.681 50.6417 119.035 50.6417H116.781V53.9059Z" fill="#FF69DA"/>
<path d="M125.867 54.3763C125.867 51.5306 127.23 47.918 132.05 47.918C136.259 47.918 138.233 50.676 138.233 54.3763C138.233 58.0765 136.259 60.8345 132.05 60.8345C127.23 60.8345 125.867 57.2209 125.867 54.3763ZM135.124 54.3763C135.124 53.259 134.984 50.2921 132.05 50.2921C130.46 50.2921 128.994 51.1476 128.994 54.3763C128.994 57.6049 130.461 58.4604 132.05 58.4604C134.984 58.4604 135.124 55.406 135.124 54.3763Z" fill="#FF69DA"/>
<path d="M149.621 53.1197V55.3716H143.648V58.1123H150.599V60.4864H140.766V48.2676H150.424V50.6417H143.647V53.1207H149.62L149.621 53.1197Z" fill="#FF69DA"/>
<path d="M88.1749 75.5674L88.0353 80.6996H85.4855V77.9415H77.2246V80.6996H74.6748L74.5352 75.5674H75.7407C77.1553 73.4551 77.5924 71.1512 77.5924 68.55V65.7227H86.4474V75.5674H88.1768H88.1749ZM80.2982 68.0968L80.2809 69.5451C80.2289 72.2675 79.8967 74.0315 78.8664 75.5674H83.5645V68.0968H80.2982Z" fill="#FF69DA"/>
<path d="M93.0461 70.1562H96.0851C99.6479 70.1562 100.469 72.3031 100.469 74.1537C100.469 76.8069 98.8804 77.9415 96.0677 77.9415H90.1641V65.7227H93.0461V70.1562ZM93.0461 75.5674H95.4909C96.6609 75.5674 97.36 75.1661 97.36 74.0488C97.36 72.8623 96.5916 72.5303 95.4033 72.5303H93.0451V75.5674H93.0461ZM104.277 65.7227V77.9415H101.395V65.7227H104.277Z" fill="#FF69DA"/>
<path d="M109.727 77.9415H106.094L110.39 71.5881L106.478 65.7236H109.901L112.242 69.7385L114.6 65.7236H118.023L114.094 71.5881L118.408 77.9415H114.774L112.242 73.7351L109.727 77.9415Z" fill="#FF69DA"/>
<path d="M126.914 65.7227L131.507 77.9415H128.451L127.665 75.655H123.229L122.461 77.9415H119.422L123.998 65.7227H126.914ZM127.037 73.5773L125.464 68.9167L123.857 73.5773H127.036H127.037Z" fill="#FF69DA"/>
<path d="M135.96 77.9415H133.078V65.7227H135.96V70.313H140.396V65.7227H143.278V77.9415H140.396V72.6871H135.96V77.9415Z" fill="#FF69DA"/>
<path d="M154.162 65.7227H157.044V77.9415H154.162V69.9647L149.288 77.9415H146.406V65.7227H149.288V73.6119L154.162 65.7227Z" fill="#FF69DA"/>
<path d="M169.023 70.5758V72.8276H163.05V75.5684H170.001V77.9425H160.168V65.7236H169.826V68.0977H163.049V70.5767H169.022L169.023 70.5758Z" fill="#FF69DA"/>
</g>
<defs>
<clipPath id="clip0_172_2">
<rect width="170" height="90" fill="white"/>
</clipPath>
</defs>
</svg>
