<svg width="72" height="72" viewBox="0 0 72 72" fill="none" xmlns="http://www.w3.org/2000/svg">
<g clip-path="url(#clip0_0_726)">
<path d="M36.0186 72.0372C55.9111 72.0372 72.0372 55.9111 72.0372 36.0186C72.0372 16.1261 55.9111 0 36.0186 0C16.1261 0 0 16.1261 0 36.0186C0 55.9111 16.1261 72.0372 36.0186 72.0372Z" fill="#1A1A1A"/>
<path d="M49.7613 21.3405C49.7613 21.3405 53.5089 19.8831 53.1966 23.4225C53.0925 24.8799 52.1556 29.9808 51.4269 35.4981L48.9285 51.8418C48.9285 51.8418 48.7203 54.2361 46.8465 54.6525C44.9727 55.0689 42.162 53.1951 41.6415 52.7787C41.2251 52.4664 33.834 47.7819 31.2315 45.4917C30.5028 44.8671 29.67 43.6179 31.3356 42.1605L42.2661 31.7505C43.5153 30.5013 44.7645 27.5865 39.5595 31.1259L24.9855 41.0154C24.9855 41.0154 23.3199 42.0564 20.1969 41.1195L13.4304 39.0375C13.4304 39.0375 10.932 37.476 15.2001 35.9145C25.6101 31.0218 38.4144 26.025 49.7613 21.3405Z" fill="white"/>
</g>
<defs>
<clipPath id="clip0_0_726">
<rect width="72" height="72" fill="white"/>
</clipPath>
</defs>
</svg>
