<svg width="72" height="72" viewBox="0 0 72 72" fill="none" xmlns="http://www.w3.org/2000/svg">
<g clip-path="url(#clip0_0_719)">
<mask id="mask0_0_719" style="mask-type:luminance" maskUnits="userSpaceOnUse" x="0" y="0" width="72" height="72">
<path d="M72 0H0V72H72V0Z" fill="white"/>
</mask>
<g mask="url(#mask0_0_719)">
<path d="M34.5226 72H37.5206C53.7955 72 61.9344 72 66.9888 66.9456C72.0432 61.8912 72 53.7552 72 37.5206V34.4794C72 18.2477 72 10.1088 66.9888 5.05442C61.9776 1.45912e-05 53.7955 0 37.5206 0H34.5226C18.2448 0 10.1088 1.45912e-05 5.0544 5.05442C-3.00407e-06 10.1088 0 18.2419 0 34.4794V37.5206C0 53.7552 -3.00407e-06 61.8912 5.0544 66.9456C10.1088 72 18.2448 72 34.5226 72Z" fill="#1A1A1A"/>
<path d="M38.1022 48.6002C24.1161 48.6002 15.6282 39.1327 15.2982 23.4002H22.3818C22.6027 34.9569 27.9917 39.8613 32.1227 40.8611V23.4002H38.9136V33.3713C42.8982 32.9404 47.0665 28.4039 48.4708 23.4002H55.1475C54.0782 29.5562 49.5402 34.0927 46.3296 35.9639C49.5402 37.4769 54.7059 41.4372 56.6982 48.6002H49.3566C47.8059 43.812 44.0048 40.1034 38.9136 39.5999V48.6002H38.1022Z" fill="white"/>
</g>
</g>
<defs>
<clipPath id="clip0_0_719">
<rect width="72" height="72" rx="36" fill="white"/>
</clipPath>
</defs>
</svg>
