<svg width="72" height="72" viewBox="0 0 72 72" fill="none" xmlns="http://www.w3.org/2000/svg">
<rect width="72" height="72" rx="36" fill="#1A1A1A"/>
<path d="M31.8278 42.0779V29.922L42.4915 36.0001L31.8278 42.0779ZM55.548 26.097C55.0787 24.3269 53.6961 22.9328 51.9408 22.4597C48.7591 21.5999 36.0005 21.5999 36.0005 21.5999C36.0005 21.5999 23.2421 21.5999 20.0604 22.4597C18.305 22.9328 16.9225 24.3269 16.4532 26.097C15.6006 29.3055 15.6006 35.9999 15.6006 35.9999C15.6006 35.9999 15.6006 42.694 16.4532 45.9027C16.9225 47.673 18.3049 49.0669 20.0604 49.5404C23.2421 50.3999 36.0005 50.3999 36.0005 50.3999C36.0005 50.3999 48.7591 50.3999 51.9408 49.5404C53.6961 49.0669 55.0787 47.673 55.548 45.9027C56.4006 42.694 56.4006 35.9998 56.4006 35.9998C56.4006 35.9998 56.4006 29.3055 55.548 26.097Z" fill="white"/>
</svg>
